<svg width="18" height="19" viewBox="0 0 18 19" fill="none" xmlns="http://www.w3.org/2000/svg">
<path d="M2.33341 12.3334V2.33341H0.666748V0.666748H3.16675C3.38776 0.666748 3.59972 0.754545 3.756 0.910826C3.91228 1.06711 4.00008 1.27907 4.00008 1.50008V11.5001H14.3651L16.0317 4.83341H5.66675V3.16675H17.1001C17.2268 3.16675 17.3518 3.19563 17.4656 3.25119C17.5794 3.30676 17.6791 3.38754 17.757 3.4874C17.835 3.58727 17.8891 3.70358 17.9153 3.82751C17.9416 3.95143 17.9392 4.07971 17.9084 4.20258L15.8251 12.5359C15.7799 12.7161 15.6759 12.8761 15.5294 12.9904C15.383 13.1047 15.2025 13.1667 15.0167 13.1667H3.16675C2.94573 13.1667 2.73377 13.079 2.57749 12.9227C2.42121 12.7664 2.33341 12.5544 2.33341 12.3334ZM4.00008 18.1667C3.55805 18.1667 3.13413 17.9912 2.82157 17.6786C2.50901 17.366 2.33341 16.9421 2.33341 16.5001C2.33341 16.0581 2.50901 15.6341 2.82157 15.3216C3.13413 15.009 3.55805 14.8334 4.00008 14.8334C4.44211 14.8334 4.86603 15.009 5.17859 15.3216C5.49115 15.6341 5.66675 16.0581 5.66675 16.5001C5.66675 16.9421 5.49115 17.366 5.17859 17.6786C4.86603 17.9912 4.44211 18.1667 4.00008 18.1667ZM14.0001 18.1667C13.5581 18.1667 13.1341 17.9912 12.8216 17.6786C12.509 17.366 12.3334 16.9421 12.3334 16.5001C12.3334 16.0581 12.509 15.6341 12.8216 15.3216C13.1341 15.009 13.5581 14.8334 14.0001 14.8334C14.4421 14.8334 14.866 15.009 15.1786 15.3216C15.4912 15.6341 15.6667 16.0581 15.6667 16.5001C15.6667 16.9421 15.4912 17.366 15.1786 17.6786C14.866 17.9912 14.4421 18.1667 14.0001 18.1667Z" fill="white"/>
</svg>
