<svg width="14" height="13" viewBox="0 0 14 13" fill="none" xmlns="http://www.w3.org/2000/svg">
<path d="M6.99995 0.199951C7.43488 0.199951 7.78745 0.552527 7.78745 0.987451V5.71245H12.5125C12.9474 5.71245 13.3 6.06503 13.3 6.49995C13.3 6.93488 12.9474 7.28745 12.5125 7.28745H7.78745V12.0125C7.78745 12.4474 7.43488 12.8 6.99995 12.8C6.56503 12.8 6.21245 12.4474 6.21245 12.0125V7.28745H1.48745C1.05253 7.28745 0.699951 6.93488 0.699951 6.49995C0.699951 6.06503 1.05253 5.71245 1.48745 5.71245H6.21245V0.987451C6.21245 0.552527 6.56503 0.199951 6.99995 0.199951Z" fill="white"/>
</svg>
